<svg version="1.1" id="Layer_1" xmlns="http://www.w3.org/2000/svg" xmlns:xlink="http://www.w3.org/1999/xlink" x="0px" y="0px"
	 width="100%" viewBox="0 0 2180 1740" enable-background="new 0 0 2180 1740" xml:space="preserve">
<path fill="#281E1E" opacity="1.000000" stroke="none" 
	d="
M1114.000000,1741.000000 
	C742.666687,1741.000000 371.833344,1741.000000 1.000000,1741.000000 
	C1.000000,1161.000000 1.000000,581.000000 1.000000,1.000000 
	C727.666687,1.000000 1454.333374,1.000000 2181.000000,1.000000 
	C2181.000000,581.000000 2181.000000,1161.000000 2181.000000,1741.000000 
	C1825.500000,1741.000000 1470.000000,1741.000000 1114.000000,1741.000000 
M550.895325,1170.926758 
	C550.694641,1170.710205 550.494019,1170.493774 550.553894,1169.611572 
	C551.079895,1167.210571 551.997192,1164.819580 552.059509,1162.406616 
	C552.257385,1154.747803 552.246521,1147.078491 552.086792,1139.418091 
	C552.018860,1136.158813 553.222717,1135.045532 556.446594,1135.087769 
	C566.774292,1135.223267 577.104919,1135.134766 587.434448,1135.132935 
	C589.859070,1135.132446 592.283630,1135.132812 595.080872,1135.132812 
	C595.080872,1130.839111 594.897949,1127.351685 595.131958,1123.892456 
	C595.369385,1120.382568 594.037659,1119.272095 590.547668,1119.327148 
	C579.221375,1119.506470 567.889709,1119.315796 556.561890,1119.438354 
	C553.445496,1119.472046 552.042236,1118.605835 552.085144,1115.230225 
	C552.227905,1103.986206 552.139221,1092.739258 552.139221,1082.507690 
	C555.911011,1082.912964 560.721008,1083.756104 565.549377,1083.879150 
	C574.857605,1084.116211 584.176208,1083.961304 593.490417,1083.940796 
	C603.864990,1083.918091 603.607788,1083.896973 603.913940,1073.276123 
	C604.041687,1068.843262 602.463928,1068.021606 598.509155,1068.052612 
	C578.517761,1068.209351 558.523071,1068.248779 538.532959,1068.027710 
	C534.113647,1067.978882 532.921875,1069.249512 532.944153,1073.668823 
	C533.124329,1109.460449 533.044495,1145.253174 533.043945,1181.045654 
	C533.043884,1182.653687 533.043945,1184.261841 533.043945,1186.084961 
	C557.444214,1186.084961 581.177551,1186.084961 605.570374,1186.084961 
	C605.570374,1181.675903 605.777039,1177.544922 605.424805,1173.462036 
	C605.336975,1172.443604 603.439575,1170.760376 602.385132,1170.769043 
	C585.419861,1170.906738 568.456482,1171.269043 550.895325,1170.926758 
M1008.275940,725.148743 
	C1023.114868,736.451965 1037.793579,747.976990 1052.907837,758.899170 
	C1056.588501,761.558838 1061.671997,763.511597 1066.158813,763.611267 
	C1087.805786,764.092224 1109.470337,763.928650 1131.124878,763.675415 
	C1133.282471,763.650146 1136.250854,762.019348 1137.432739,760.211670 
	C1154.291504,734.428406 1170.946899,708.511536 1187.469971,682.511780 
	C1188.347534,681.130920 1188.384155,678.236023 1187.515747,676.870117 
	C1170.896118,650.727051 1154.126709,624.678467 1137.197388,598.734985 
	C1136.172241,597.164124 1133.561523,595.768127 1131.674927,595.750610 
	C1109.510986,595.545105 1087.340454,595.404358 1065.182251,595.816895 
	C1061.189819,595.891174 1056.624634,597.713745 1053.376465,600.138855 
	C1025.611206,620.868408 998.056458,641.880859 970.543823,662.945984 
	C967.798462,665.048035 966.000183,665.171082 963.226746,663.040894 
	C937.862793,643.558899 912.451843,624.136414 886.887451,604.918884 
	C883.105896,602.076172 881.963318,599.033997 881.975037,594.467102 
	C882.116882,539.333130 882.060913,484.198730 882.056458,429.064423 
	C882.056152,425.452972 882.056335,421.841492 882.056335,417.991058 
	C1015.040039,417.991058 1147.349243,417.991058 1280.324341,417.991058 
	C1279.417358,419.814209 1278.955200,421.012207 1278.275635,422.070587 
	C1258.482056,452.898529 1238.623169,483.684845 1218.926514,514.574524 
	C1217.108154,517.426025 1215.019287,517.992065 1211.963745,517.989014 
	C1145.966187,517.922913 1079.968750,517.936157 1013.971191,517.951050 
	C1011.876221,517.951538 1009.781311,518.131897 1007.572876,518.233643 
	C1007.572876,525.683777 1007.572876,532.603271 1007.572876,540.138733 
	C1009.651245,540.138733 1011.445679,540.138672 1013.240112,540.138733 
	C1083.061890,540.141113 1152.883667,540.106079 1222.705200,540.236267 
	C1227.002319,540.244263 1229.632446,539.074951 1232.013306,535.348022 
	C1260.790161,490.301239 1289.741821,445.366180 1318.632324,400.391998 
	C1319.575806,398.923157 1320.354370,397.348389 1321.335571,395.598633 
	C1167.270264,395.598633 1013.871460,395.598633 860.170349,395.598633 
	C860.060608,397.595459 859.892029,399.236023 859.891663,400.876556 
	C859.878601,469.873962 859.902100,538.871399 859.811829,607.868713 
	C859.807617,611.078918 860.901245,612.981323 863.416565,614.879456 
	C888.282959,633.643494 913.056396,652.530762 937.836914,671.408447 
	C941.221130,673.986511 944.499878,676.702942 948.195862,679.649048 
	C946.312439,681.179871 944.944763,682.354492 943.513306,683.445435 
	C917.148438,703.540222 890.820312,723.683777 864.348267,743.636475 
	C861.072021,746.105896 859.786194,748.639954 859.793518,752.746582 
	C859.915222,821.077087 859.877808,889.407898 859.893066,957.738647 
	C859.893555,959.688049 860.083374,961.637451 860.184204,963.573730 
	C1013.915710,963.573730 1167.260010,963.573730 1321.144897,963.573730 
	C1320.355225,962.034424 1319.923950,960.985840 1319.320679,960.047791 
	C1289.777588,914.102966 1260.174194,868.196777 1230.750854,822.175354 
	C1228.420410,818.530396 1226.085449,817.099121 1221.658447,817.109497 
	C1152.161499,817.273071 1082.663940,817.224426 1013.166626,817.224731 
	C1011.386414,817.224792 1009.606262,817.224792 1007.560181,817.224792 
	C1007.560181,824.755432 1007.560181,831.668945 1007.560181,839.034180 
	C1009.467590,839.191711 1011.246704,839.464233 1013.026123,839.466675 
	C1035.959473,839.498535 1058.892822,839.496155 1081.826172,839.494263 
	C1124.532715,839.490784 1167.239380,839.435974 1209.945312,839.594666 
	C1212.391968,839.603760 1215.953125,840.604980 1217.109131,842.375854 
	C1237.861328,874.168335 1258.327026,906.147949 1278.821655,938.108154 
	C1279.389526,938.993774 1279.600830,940.108032 1280.233154,941.795532 
	C1277.618286,941.795532 1275.651245,941.795349 1273.684326,941.795532 
	C1245.356201,941.798767 1217.028198,941.805054 1188.700073,941.804749 
	C1088.717163,941.803772 988.734314,941.801331 888.751404,941.796509 
	C882.092529,941.796204 882.072327,941.785095 882.068787,934.948547 
	C882.058777,915.293152 882.068237,895.637756 882.067017,875.982361 
	C882.064758,838.504028 882.007751,801.025452 882.175842,763.547913 
	C882.187012,761.059143 883.157593,757.617004 884.937073,756.237854 
	C911.006165,736.033020 937.314209,716.136841 963.481079,696.057373 
	C966.099060,694.048401 967.860413,694.220642 970.389465,696.188477 
	C982.746765,705.803162 995.252319,715.227356 1008.275940,725.148743 
M1493.780762,1112.592285 
	C1493.951904,1110.602417 1494.112915,1108.611450 1494.295898,1106.622681 
	C1496.311279,1084.714600 1483.416992,1069.382202 1461.424927,1068.361450 
	C1448.464355,1067.760010 1435.452881,1068.339844 1422.473389,1068.019165 
	C1417.718262,1067.901733 1416.187378,1069.277222 1416.218506,1074.190918 
	C1416.425903,1106.825806 1416.325806,1139.462524 1416.325806,1172.098755 
	C1416.325684,1186.879272 1416.323730,1186.779663 1431.159180,1186.471558 
	C1434.671265,1186.398560 1435.789062,1185.197388 1435.732178,1181.763428 
	C1435.566528,1171.775513 1435.674072,1161.782959 1435.674194,1151.792236 
	C1435.674316,1138.370850 1435.675049,1138.496582 1448.955811,1138.412720 
	C1452.638672,1138.389404 1454.640259,1139.605103 1456.211914,1142.952026 
	C1462.365479,1156.056030 1468.760376,1169.047729 1475.166016,1182.031616 
	C1475.934692,1183.589600 1477.245117,1185.978271 1478.425415,1186.052368 
	C1484.790649,1186.451294 1491.193970,1186.241089 1498.232910,1186.241089 
	C1489.968018,1169.145264 1482.167358,1153.009766 1474.110474,1136.344116 
	C1484.942749,1131.942993 1491.088135,1124.146484 1493.780762,1112.592285 
M1561.034424,1171.478882 
	C1585.870972,1197.564575 1627.276123,1191.188843 1641.889404,1158.387939 
	C1651.673340,1136.426758 1651.303223,1113.862183 1639.864380,1092.409790 
	C1623.052856,1060.880737 1578.581177,1058.242798 1557.647827,1087.188110 
	C1541.194458,1109.938354 1542.588257,1149.210449 1561.034424,1171.478882 
M1360.020386,1123.395020 
	C1360.020508,1109.732056 1360.020996,1096.069092 1360.020630,1082.406128 
	C1360.020264,1067.747192 1360.021240,1067.846069 1345.245483,1068.052856 
	C1341.764160,1068.101807 1340.718140,1069.130859 1340.740967,1072.673096 
	C1340.862061,1091.497681 1340.734497,1110.323975 1340.642090,1129.149414 
	C1340.611084,1135.470703 1340.856079,1141.833984 1340.227905,1148.103149 
	C1338.941772,1160.936401 1329.554688,1169.462769 1316.987427,1169.836548 
	C1304.674316,1170.202759 1294.921143,1162.353394 1292.594727,1149.931152 
	C1291.986694,1146.683838 1291.916138,1143.302734 1291.905762,1139.981934 
	C1291.845093,1120.654175 1291.875732,1101.325928 1291.875732,1081.997925 
	C1291.875610,1067.942383 1291.875244,1068.083374 1277.738770,1068.034058 
	C1273.778687,1068.020264 1272.557861,1069.235718 1272.581909,1073.159790 
	C1272.726074,1096.652344 1272.612183,1120.146606 1272.678955,1143.640015 
	C1272.706055,1153.183960 1274.970337,1162.184448 1280.589722,1170.024658 
	C1291.078979,1184.659424 1310.427856,1190.931152 1329.272583,1185.683716 
	C1344.283691,1181.503784 1354.660156,1171.804932 1357.795532,1156.595093 
	C1359.950439,1146.140625 1359.375000,1135.123169 1360.020386,1123.395020 
M1012.345215,1081.520752 
	C1012.376770,1068.088257 1012.376770,1068.088379 999.130066,1068.128052 
	C998.463806,1068.130127 997.790344,1068.194336 997.132446,1068.120605 
	C994.092957,1067.779907 993.043762,1069.106445 993.081665,1072.138428 
	C993.210876,1082.464233 993.096191,1092.792725 993.135803,1103.119995 
	C993.192627,1117.941284 992.967712,1132.774414 993.496155,1147.579834 
	C993.924072,1159.566895 998.555420,1170.079712 1008.191162,1177.583130 
	C1022.757568,1188.926025 1039.119019,1190.657349 1055.745728,1183.444092 
	C1073.062866,1175.931519 1080.260498,1161.307251 1080.345215,1142.935791 
	C1080.451294,1119.949463 1080.376831,1096.962402 1080.358887,1073.975586 
	C1080.357422,1072.176880 1080.187256,1070.378540 1080.072632,1068.128662 
	C1075.246460,1068.128662 1070.758789,1068.395752 1066.318848,1068.050537 
	C1062.195923,1067.729858 1061.266968,1069.395264 1061.305176,1073.208984 
	C1061.470581,1089.697754 1061.418701,1106.189453 1061.341919,1122.679565 
	C1061.303101,1131.001709 1061.523071,1139.366455 1060.773193,1147.634521 
	C1059.537720,1161.258301 1049.423462,1170.166870 1036.462402,1169.857544 
	C1023.298767,1169.543335 1013.869568,1160.506348 1012.640137,1146.960693 
	C1012.429810,1144.643433 1012.369385,1142.306030 1012.366577,1139.977661 
	C1012.343323,1120.822876 1012.350159,1101.668213 1012.345215,1081.520752 
M936.895081,1073.030640 
	C937.180298,1069.971558 936.628906,1068.015015 932.726257,1068.040039 
	C911.415344,1068.177490 890.102905,1068.136353 868.791321,1068.072266 
	C865.711792,1068.062988 864.270569,1068.977417 864.277588,1072.356812 
	C864.353516,1108.986084 864.340698,1145.615601 864.277588,1182.244995 
	C864.272522,1185.195679 865.236145,1186.564575 868.307678,1186.435425 
	C871.631714,1186.295776 874.984009,1186.189941 878.291748,1186.461304 
	C882.370178,1186.795898 883.857422,1185.419189 883.775818,1181.143188 
	C883.528198,1168.161011 883.818604,1155.169067 883.616211,1142.185425 
	C883.551025,1138.001831 885.041260,1136.719727 889.120667,1136.822144 
	C898.605103,1137.060425 908.099609,1136.898315 917.590027,1136.895142 
	C927.769897,1136.891724 926.301025,1137.505371 926.377747,1128.030640 
	C926.434326,1121.050049 926.389160,1121.051025 919.185181,1121.051758 
	C906.764099,1121.052979 894.343018,1121.052246 882.796204,1121.052246 
	C882.796204,1108.538208 882.796204,1095.576782 882.796204,1082.773193 
	C887.021362,1083.217773 890.452576,1083.847778 893.891174,1083.890625 
	C904.873901,1084.027710 915.859558,1083.989746 926.843689,1083.938354 
	C938.666748,1083.883057 936.698364,1085.231323 936.895081,1073.030640 
M1185.319458,1086.993530 
	C1184.708862,1085.722900 1184.098267,1084.452393 1183.845825,1083.927002 
	C1193.253540,1083.927002 1202.665161,1083.905029 1212.076538,1083.942871 
	C1214.359253,1083.952026 1216.329834,1083.486328 1215.810913,1080.702393 
	C1215.037231,1076.550415 1218.103516,1071.767334 1213.801147,1068.234741 
	C1213.491333,1067.980347 1212.827881,1068.135742 1212.328979,1068.135620 
	C1188.341919,1068.132324 1164.354858,1068.103638 1140.368408,1068.226074 
	C1139.258057,1068.231689 1137.255737,1069.531494 1137.197510,1070.338623 
	C1136.882080,1074.716187 1137.047852,1079.128540 1137.047852,1083.505859 
	C1148.042847,1083.505859 1158.273071,1083.505859 1167.681641,1083.505859 
	C1167.410156,1089.560913 1166.927490,1095.616577 1166.904297,1101.674194 
	C1166.813477,1125.494263 1166.867188,1149.315063 1166.867188,1173.135498 
	C1166.867188,1186.429810 1166.870972,1186.238525 1180.124268,1186.498779 
	C1184.671387,1186.588013 1186.155884,1185.410767 1186.123047,1180.686279 
	C1185.919312,1151.370239 1186.026367,1122.051880 1186.003296,1092.734375 
	C1186.001953,1091.080200 1185.762451,1089.426392 1185.319458,1086.993530 
M712.497803,1186.389038 
	C715.495605,1186.389038 718.493835,1186.421387 721.491150,1186.383057 
	C732.194824,1186.246338 730.717346,1187.955566 731.104065,1176.799072 
	C731.268860,1172.044312 729.855225,1170.437012 724.954163,1170.529785 
	C709.708679,1170.818604 694.454224,1170.635620 679.972900,1170.635620 
	C680.293701,1165.828003 680.846497,1160.436523 680.967957,1155.035522 
	C681.143799,1147.213013 681.010315,1139.383301 681.003967,1131.556763 
	C680.988281,1112.071045 681.032227,1092.584717 680.840759,1073.100708 
	C680.824463,1071.445923 679.350647,1068.474487 678.347534,1068.383301 
	C673.097107,1067.905762 667.780151,1068.160278 662.359924,1068.160278 
	C662.154724,1069.828735 661.894165,1070.961548 661.893494,1072.094727 
	C661.871277,1108.735352 661.915222,1145.376099 661.809204,1182.016357 
	C661.798706,1185.649414 663.180420,1186.482422 666.530945,1186.450684 
	C681.518921,1186.308350 696.509033,1186.388794 712.497803,1186.389038 
M170.982864,1322.093262 
	C180.464264,1322.090698 189.945679,1322.102539 199.427032,1322.079468 
	C203.844696,1322.068604 213.930389,1313.919312 213.919815,1309.557861 
	C213.896149,1299.797485 217.221481,1288.967407 206.683258,1281.885498 
	C206.494095,1281.758301 206.533173,1281.291382 206.469040,1280.997925 
	C210.629181,1275.608643 210.629227,1275.608643 210.629288,1267.954834 
	C210.629318,1264.791138 210.640762,1261.627319 210.626587,1258.463623 
	C210.597580,1251.987427 202.436050,1243.860596 195.880539,1243.842651 
	C184.392685,1243.811401 172.901566,1243.982544 161.418396,1243.747314 
	C157.258987,1243.662109 155.985428,1245.021729 156.016617,1249.168945 
	C156.186874,1271.813354 156.088882,1294.459473 156.116791,1317.105103 
	C156.118744,1318.692383 156.392319,1320.279419 156.562744,1322.116089 
	C161.526413,1322.116089 166.003311,1322.116089 170.982864,1322.093262 
M744.816833,1278.500488 
	C744.816833,1273.283203 744.816833,1268.066040 744.816833,1262.848755 
	C745.348389,1262.717041 745.880005,1262.585449 746.411560,1262.453735 
	C747.468750,1263.821167 748.641418,1265.114990 749.565491,1266.567139 
	C760.289001,1283.418945 770.973206,1300.295898 781.671814,1317.163574 
	C785.307068,1322.894897 786.315002,1323.242920 793.386353,1321.271851 
	C793.386353,1295.684326 793.386353,1270.096802 793.386353,1244.571045 
	C785.598755,1242.802490 784.891968,1243.405518 784.917664,1250.648071 
	C784.974976,1266.799072 784.940308,1282.950562 784.890991,1299.101685 
	C784.886475,1300.567505 784.504578,1302.032227 784.297913,1303.497437 
	C782.126282,1302.130615 781.086792,1300.681030 780.132385,1299.177490 
	C769.071289,1281.752686 757.914246,1264.387207 747.057434,1246.835815 
	C744.704102,1243.031372 741.434082,1243.390625 738.432861,1244.156738 
	C737.251892,1244.458252 736.178467,1247.733276 736.164062,1249.662354 
	C735.995911,1272.137207 736.033813,1294.613525 736.039307,1317.089478 
	C736.039734,1318.685547 736.214417,1320.281616 736.300598,1321.749268 
	C739.462585,1321.749268 742.041016,1321.749268 744.831848,1321.749268 
	C744.831848,1307.420166 744.831848,1293.461182 744.816833,1278.500488 
M1863.997803,1314.272217 
	C1863.997803,1316.723755 1863.997803,1319.175171 1863.997803,1321.773193 
	C1867.338745,1321.773193 1870.060425,1321.773193 1873.159668,1321.773193 
	C1873.159668,1312.644165 1873.364990,1303.842651 1873.071411,1295.057617 
	C1872.928955,1290.796509 1874.026733,1289.011230 1878.584595,1289.330933 
	C1883.884644,1289.702515 1889.230713,1289.407349 1894.556885,1289.419189 
	C1902.134521,1289.436157 1910.575317,1298.014771 1910.594238,1305.719116 
	C1910.607056,1310.986206 1910.596802,1316.253174 1910.596802,1321.814209 
	C1913.827393,1321.814209 1916.427490,1321.814209 1919.507935,1321.814209 
	C1919.053833,1309.715332 1923.868774,1296.665771 1909.802124,1287.522583 
	C1920.265991,1282.273560 1919.921753,1273.889648 1919.417725,1265.408325 
	C1919.269897,1262.920410 1919.435791,1260.415527 1919.382324,1257.920166 
	C1919.265137,1252.455933 1910.874756,1243.869385 1905.462402,1243.839478 
	C1893.147583,1243.771484 1880.831177,1243.909546 1868.517578,1243.771973 
	C1865.044800,1243.733154 1863.865356,1244.958740 1863.889282,1248.428833 
	C1864.037964,1270.062500 1864.020874,1291.697388 1863.997803,1314.272217 
M570.506226,1322.072144 
	C575.997559,1322.079468 581.557739,1321.539062 586.964661,1322.218506 
	C595.718994,1323.318481 602.239868,1320.522827 607.695312,1313.642456 
	C609.897949,1310.864258 611.299438,1308.494995 611.237427,1304.860840 
	C611.029846,1292.703003 610.580688,1280.502563 611.350220,1268.390137 
	C611.917664,1259.456909 609.560730,1252.732788 602.508240,1247.196411 
	C599.883972,1245.136475 597.650696,1243.659180 594.187622,1243.747070 
	C585.697693,1243.963013 577.198792,1243.827637 568.703491,1243.831421 
	C563.757690,1243.833618 558.811890,1243.831787 553.732300,1243.831787 
	C553.732300,1270.283203 553.732300,1296.005859 553.732300,1322.094727 
	C559.397034,1322.094727 564.701599,1322.094727 570.506226,1322.072144 
M1146.619141,1315.297119 
	C1146.619141,1306.015259 1146.619141,1296.733398 1146.619141,1287.133911 
	C1158.267578,1287.133911 1169.248901,1287.372925 1180.211182,1287.021240 
	C1184.878906,1286.871582 1186.203247,1288.324707 1186.056030,1292.873047 
	C1185.745239,1302.473022 1185.961426,1312.089966 1185.961426,1321.622070 
	C1195.021729,1322.760254 1195.022827,1322.760254 1195.023071,1314.611572 
	C1195.023560,1292.637207 1194.954224,1270.662354 1195.090820,1248.688721 
	C1195.113525,1245.041138 1194.080200,1243.687500 1190.293701,1243.720215 
	C1186.559204,1243.752563 1185.855103,1245.413696 1185.908203,1248.636597 
	C1186.045410,1256.956909 1185.750122,1265.287842 1186.026855,1273.601074 
	C1186.162231,1277.663818 1185.049805,1279.315430 1180.770020,1279.053345 
	C1175.462769,1278.728271 1170.120605,1278.976562 1164.793457,1278.976685 
	C1158.886841,1278.976929 1152.980225,1278.976685 1146.619385,1278.976685 
	C1146.619385,1268.405396 1146.488037,1258.605713 1146.688477,1248.812988 
	C1146.761597,1245.245972 1145.835083,1243.727295 1141.994629,1243.716309 
	C1138.130859,1243.705322 1137.282227,1245.266235 1137.301636,1248.811646 
	C1137.427979,1271.950562 1137.364258,1295.090698 1137.376465,1318.230347 
	C1137.377075,1319.356934 1137.509277,1320.483643 1137.594971,1321.844971 
	C1140.600830,1321.844971 1143.353027,1321.844971 1146.619385,1321.844971 
	C1146.619385,1319.809326 1146.619385,1318.020142 1146.619141,1315.297119 
M906.379822,1312.795532 
	C907.365356,1311.311768 909.158386,1309.852173 909.203735,1308.340210 
	C909.472656,1299.377441 909.336487,1290.402588 909.336487,1281.214111 
	C900.305542,1281.214111 891.858887,1281.214111 883.025513,1281.214111 
	C883.025513,1283.820679 883.025513,1286.224365 883.025513,1289.319824 
	C888.784546,1289.319824 894.333313,1289.319824 900.178223,1289.319824 
	C900.178223,1293.326782 899.865356,1296.683960 900.252258,1299.958252 
	C900.817078,1304.738525 899.415771,1308.545410 895.427673,1311.077271 
	C893.339355,1312.403076 890.836792,1313.640259 888.443298,1313.808716 
	C882.807922,1314.205078 877.125549,1313.953613 871.462341,1313.930420 
	C865.458374,1313.906006 859.911316,1308.348877 859.898438,1302.304443 
	C859.872986,1290.308472 859.889954,1278.312500 859.890625,1266.316528 
	C859.891235,1256.260986 864.164490,1252.014038 874.280151,1252.013062 
	C878.445435,1252.012573 882.712219,1252.592407 886.753357,1251.884155 
	C893.705444,1250.665649 899.774780,1256.795044 900.793518,1262.873047 
	C903.534912,1262.873047 906.276855,1262.873047 909.528259,1262.873047 
	C909.252991,1260.023071 909.945190,1256.715332 908.618042,1255.297119 
	C903.382080,1249.701416 899.297119,1241.967651 889.319397,1243.714722 
	C885.117615,1244.450439 880.588196,1244.391724 876.365112,1243.713867 
	C866.396240,1242.113647 858.917175,1245.705322 853.287231,1253.653442 
	C852.033203,1255.423950 850.778931,1257.695801 850.750916,1259.753418 
	C850.540100,1275.245239 850.588684,1290.741821 850.703125,1306.235718 
	C850.715637,1307.931030 851.204346,1309.995483 852.243774,1311.248657 
	C858.076050,1318.279907 864.304016,1324.519775 874.874451,1322.191650 
	C878.050476,1321.492188 881.576172,1321.662231 884.828552,1322.165283 
	C893.768982,1323.547974 900.665771,1320.564575 906.379822,1312.795532 
M1753.382690,1243.834839 
	C1749.543945,1243.285400 1748.165649,1244.692505 1748.211182,1248.788696 
	C1748.422363,1267.780640 1748.207275,1286.777466 1748.428955,1305.769287 
	C1748.456421,1308.122803 1749.821289,1310.695435 1751.185425,1312.756958 
	C1756.461304,1320.730469 1764.006104,1323.572998 1773.406860,1322.174927 
	C1776.175537,1321.763306 1779.105713,1321.760864 1781.876221,1322.161987 
	C1790.534912,1323.415161 1797.218628,1320.704712 1802.641113,1313.690308 
	C1804.788086,1310.913208 1806.271973,1308.590210 1806.236938,1304.930664 
	C1806.057739,1286.271362 1806.097290,1267.608887 1806.206543,1248.948486 
	C1806.226196,1245.589111 1805.732178,1243.683472 1801.667358,1243.702271 
	C1797.694214,1243.720703 1797.018066,1245.475342 1797.042725,1248.905884 
	C1797.163940,1265.733398 1797.098267,1282.562378 1797.097412,1299.390747 
	C1797.096924,1309.661865 1792.760864,1313.952881 1782.368896,1313.955688 
	C1778.037598,1313.956909 1773.705933,1313.963867 1769.374878,1313.922974 
	C1762.558472,1313.858643 1757.397827,1308.593140 1757.392212,1301.672363 
	C1757.377808,1284.011475 1757.387451,1266.350464 1757.393555,1248.689575 
	C1757.394409,1246.337646 1757.787964,1243.745850 1753.382690,1243.834839 
M1577.365967,1300.336548 
	C1577.345093,1309.329590 1572.761719,1313.919067 1563.783813,1313.925049 
	C1558.954590,1313.928223 1554.125244,1313.933350 1549.296143,1313.907593 
	C1543.342285,1313.875854 1537.843018,1308.289917 1537.836426,1302.238037 
	C1537.820068,1287.414551 1537.830811,1272.591064 1537.830811,1257.767578 
	C1537.830811,1253.335815 1537.830811,1248.904175 1537.830811,1244.628052 
	C1529.250122,1242.780151 1528.598145,1243.257080 1528.597534,1250.773071 
	C1528.596191,1268.761108 1528.708130,1286.750488 1528.508667,1304.736328 
	C1528.466064,1308.583740 1530.032471,1311.032715 1532.304565,1313.916870 
	C1537.655640,1320.708984 1544.138062,1323.495361 1552.652100,1322.180786 
	C1555.418335,1321.753784 1558.390259,1321.645264 1561.119019,1322.168701 
	C1571.417725,1324.143921 1578.677002,1319.604614 1584.540771,1311.809814 
	C1585.396362,1310.672485 1586.519653,1309.297974 1586.527710,1308.026978 
	C1586.655518,1287.708008 1586.674072,1267.387573 1586.482056,1247.069580 
	C1586.471802,1245.980225 1584.546997,1244.376587 1583.219727,1243.969238 
	C1581.614624,1243.476562 1579.696411,1244.004395 1577.366089,1244.117065 
	C1577.366089,1262.815552 1577.366089,1281.095093 1577.365967,1300.336548 
M267.852692,1305.033203 
	C268.903412,1307.666870 269.535828,1310.581421 271.081146,1312.882935 
	C276.264191,1320.602661 283.541901,1323.648438 292.867981,1322.170898 
	C296.277344,1321.630737 299.913147,1321.660522 303.328308,1322.188965 
	C311.297882,1323.422241 316.811829,1320.142456 321.826965,1314.241333 
	C324.604584,1310.972900 326.036835,1308.014404 325.983551,1303.691406 
	C325.762024,1285.705444 325.890289,1267.715332 325.890259,1249.726685 
	C325.890228,1247.958252 325.890259,1246.189819 325.890259,1244.557007 
	C316.874054,1242.919556 316.580017,1243.319824 316.643219,1251.270264 
	C316.770294,1267.254028 316.646515,1283.239990 316.633698,1299.224976 
	C316.625275,1309.727905 312.513458,1313.925049 302.184143,1313.936157 
	C297.688049,1313.941040 293.191803,1313.945312 288.695862,1313.915405 
	C282.596558,1313.874756 277.124176,1308.430420 277.114532,1302.332153 
	C277.087738,1285.349243 277.083984,1268.366455 277.101013,1251.383545 
	C277.109192,1243.246094 276.878571,1243.029541 267.852722,1244.442139 
	C267.852722,1264.257446 267.852722,1284.194458 267.852692,1305.033203 
M2028.651855,1248.521851 
	C2029.257080,1244.697388 2027.468872,1243.715088 2023.845581,1243.761597 
	C2010.357300,1243.935059 1996.862183,1244.003052 1983.376953,1243.737549 
	C1978.918823,1243.649658 1977.722168,1245.083984 1977.760498,1249.438721 
	C1977.958252,1271.923706 1977.846436,1294.411621 1977.865479,1316.898438 
	C1977.866943,1318.508911 1978.052246,1320.119019 1978.152466,1321.738037 
	C1995.078247,1321.738037 2011.630615,1321.738037 2028.124878,1321.738037 
	C2029.266968,1313.983032 2029.233398,1313.938843 2022.194702,1313.939941 
	C2016.866333,1313.940796 2011.537964,1313.951294 2006.209595,1313.953369 
	C1999.944092,1313.955811 1993.678589,1313.953857 1986.890503,1313.953857 
	C1986.890503,1306.593872 1986.886353,1299.968506 1986.891724,1293.343140 
	C1986.897095,1286.901001 1986.901367,1286.895020 1993.438599,1286.891846 
	C2003.880981,1286.886841 2014.323364,1286.890503 2024.635376,1286.890503 
	C2026.278198,1278.878418 2026.072144,1278.612427 2018.742188,1278.610107 
	C2009.914062,1278.607422 2001.081055,1278.437988 1992.259888,1278.685913 
	C1988.263428,1278.798096 1986.529541,1277.782471 1986.807007,1273.448730 
	C1987.157471,1267.974365 1987.121704,1262.447510 1986.814209,1256.968018 
	C1986.591064,1252.989868 1987.943604,1251.832031 1991.891357,1251.925171 
	C2002.712402,1252.180542 2013.543213,1252.022827 2024.370239,1252.002563 
	C2026.294434,1251.999023 2028.635742,1252.542236 2028.651855,1248.521851 
M1296.958984,1278.613525 
	C1286.960205,1278.610962 1276.960083,1278.688721 1266.964111,1278.519165 
	C1265.464233,1278.493652 1262.715088,1277.358032 1262.688477,1276.654785 
	C1262.383789,1268.593140 1262.494507,1260.515869 1262.494507,1251.865479 
	C1276.691040,1251.865479 1290.089111,1251.865479 1303.752930,1251.865479 
	C1303.752930,1249.011597 1303.752930,1246.752075 1303.752930,1244.323730 
	C1286.846924,1244.323730 1270.177490,1244.323730 1253.478271,1244.323730 
	C1253.478271,1270.407104 1253.478271,1295.989136 1253.478271,1321.800171 
	C1270.406982,1321.800171 1286.966309,1321.800171 1303.475342,1321.800171 
	C1304.754150,1314.085449 1304.640137,1313.935547 1297.665283,1313.934326 
	C1291.501343,1313.933228 1285.337524,1313.939575 1279.173584,1313.940918 
	C1273.737061,1313.942261 1268.300537,1313.941284 1262.725464,1313.941284 
	C1262.725464,1304.610229 1262.725464,1296.036865 1262.725464,1286.890625 
	C1264.870972,1286.890625 1266.663208,1286.890747 1268.455322,1286.890503 
	C1277.787598,1286.889648 1287.122681,1287.004272 1296.448975,1286.766968 
	C1297.902954,1286.730103 1300.225952,1285.332397 1300.546387,1284.135620 
	C1301.103638,1282.053223 1301.951660,1278.829590 1296.958984,1278.613525 
M1436.197998,1288.777222 
	C1438.527466,1288.320435 1440.851196,1287.507812 1443.187500,1287.469238 
	C1452.431885,1287.316772 1461.680054,1287.406738 1470.797607,1287.406738 
	C1470.797607,1284.221313 1470.797607,1281.817383 1470.797607,1278.863770 
	C1459.003296,1278.863770 1447.606689,1278.863770 1435.890381,1278.863770 
	C1435.890381,1272.831543 1435.890381,1267.357300 1435.890381,1261.883179 
	C1435.890381,1252.012939 1435.890381,1252.012939 1445.950195,1252.012939 
	C1455.886230,1252.012939 1465.822266,1252.012939 1476.029053,1252.012939 
	C1476.029053,1249.024536 1476.029053,1246.656738 1476.029053,1243.838623 
	C1461.211670,1243.838623 1446.754150,1244.015625 1432.305298,1243.734985 
	C1427.734619,1243.646240 1426.732666,1245.252808 1426.766968,1249.500732 
	C1426.948730,1271.969849 1426.846191,1294.441040 1426.865723,1316.911621 
	C1426.867065,1318.517578 1427.055664,1320.123169 1427.163208,1321.824219 
	C1430.116089,1321.824219 1432.704712,1321.824219 1435.969482,1321.824219 
	C1435.969482,1310.936401 1435.969482,1300.330811 1436.197998,1288.777222 
M1672.631714,1267.500000 
	C1672.631714,1262.427246 1672.631714,1257.354370 1672.631714,1251.922363 
	C1679.370361,1251.922363 1685.188599,1251.854736 1691.004150,1251.950806 
	C1693.937744,1251.999146 1696.148682,1251.927734 1696.141357,1247.876343 
	C1696.134155,1243.855469 1693.979004,1243.770752 1691.014526,1243.783936 
	C1675.518066,1243.852417 1660.021240,1243.803589 1644.524536,1243.826416 
	C1643.072754,1243.828491 1641.621216,1244.046143 1640.104858,1244.168945 
	C1640.104858,1246.820068 1640.104858,1249.095093 1640.104858,1251.893311 
	C1647.785767,1251.893311 1655.233398,1251.893311 1663.326660,1251.893311 
	C1663.326660,1275.478394 1663.326660,1298.550659 1663.326660,1321.756836 
	C1666.721680,1321.756836 1669.451660,1321.756836 1672.631714,1321.756836 
	C1672.631714,1303.774780 1672.631714,1286.137695 1672.631714,1267.500000 
M1045.600098,1251.902710 
	C1050.491699,1251.091187 1051.750977,1253.255981 1051.690552,1258.000732 
	C1051.442505,1277.496460 1051.587158,1296.997070 1051.587402,1316.495972 
	C1051.587402,1318.249390 1051.587402,1320.002808 1051.587402,1321.817871 
	C1054.933472,1321.817871 1057.541992,1321.817871 1060.732544,1321.817871 
	C1060.732544,1298.503784 1060.732544,1275.453613 1060.732544,1251.902222 
	C1067.118042,1251.902222 1072.930176,1251.839478 1078.740112,1251.927856 
	C1081.773926,1251.973877 1084.272339,1252.132935 1084.199585,1247.701172 
	C1084.130737,1243.495239 1081.705933,1243.811768 1078.926392,1243.817993 
	C1063.762451,1243.852051 1048.598633,1243.818115 1033.434692,1243.849854 
	C1031.693237,1243.853516 1029.952271,1244.120850 1028.275391,1244.260620 
	C1028.275391,1247.097656 1028.275391,1249.361084 1028.275391,1251.902100 
	C1033.927612,1251.902100 1039.254761,1251.902100 1045.600098,1251.902710 
M459.060852,1243.880371 
	C456.256714,1244.167236 452.515167,1242.333740 452.552917,1247.900391 
	C452.714264,1271.685303 452.625305,1295.471802 452.649780,1319.257812 
	C452.650604,1320.065430 452.888123,1320.872803 453.030609,1321.777466 
	C469.021118,1321.777466 484.883331,1321.777466 500.800537,1321.777466 
	C500.800537,1319.055298 500.800537,1316.670166 500.800537,1313.860840 
	C487.667389,1313.860840 474.923492,1313.860840 461.732697,1313.860840 
	C461.732697,1311.644653 461.732513,1309.855347 461.732697,1308.066162 
	C461.734650,1288.324585 461.780518,1268.582886 461.657745,1248.842041 
	C461.647614,1247.209351 460.494965,1245.583618 459.060852,1243.880371 
M677.887207,1255.538818 
	C677.887207,1251.789185 677.887207,1248.039551 677.887207,1244.452393 
	C668.908875,1243.100098 668.796814,1243.191895 668.796509,1251.142822 
	C668.795715,1272.802490 668.788208,1294.462036 668.810242,1316.121704 
	C668.812195,1318.030396 669.010681,1319.938965 669.112305,1321.747803 
	C672.262268,1321.747803 674.839478,1321.747803 677.889587,1321.747803 
	C677.889587,1299.772217 677.889587,1278.149048 677.887207,1255.538818 
M394.390961,1298.500366 
	C394.390472,1281.854126 394.288330,1265.206665 394.467163,1248.562378 
	C394.507538,1244.804688 393.332520,1243.293701 389.621643,1243.832642 
	C388.334839,1244.019531 387.031830,1244.094727 385.483063,1244.245605 
	C385.483063,1270.185913 385.483063,1295.892944 385.483063,1321.759521 
	C388.510803,1321.759521 391.229340,1321.759521 394.390869,1321.759521 
	C394.390869,1314.107422 394.390869,1306.803955 394.390961,1298.500366 
z"/>
<path fill="#C1BBB4" opacity="1.000000" stroke="none" 
	d="
M1007.990723,724.933838 
	C995.252319,715.227356 982.746765,705.803162 970.389465,696.188477 
	C967.860413,694.220642 966.099060,694.048401 963.481079,696.057373 
	C937.314209,716.136841 911.006165,736.033020 884.937073,756.237854 
	C883.157593,757.617004 882.187012,761.059143 882.175842,763.547913 
	C882.007751,801.025452 882.064758,838.504028 882.067017,875.982361 
	C882.068237,895.637756 882.058777,915.293152 882.068787,934.948547 
	C882.072327,941.785095 882.092529,941.796204 888.751404,941.796509 
	C988.734314,941.801331 1088.717163,941.803772 1188.700073,941.804749 
	C1217.028198,941.805054 1245.356201,941.798767 1273.684326,941.795532 
	C1275.651245,941.795349 1277.618286,941.795532 1280.233154,941.795532 
	C1279.600830,940.108032 1279.389526,938.993774 1278.821655,938.108154 
	C1258.327026,906.147949 1237.861328,874.168335 1217.109131,842.375854 
	C1215.953125,840.604980 1212.391968,839.603760 1209.945312,839.594666 
	C1167.239380,839.435974 1124.532715,839.490784 1081.826172,839.494263 
	C1058.892822,839.496155 1035.959473,839.498535 1013.026123,839.466675 
	C1011.246704,839.464233 1009.467590,839.191711 1007.560181,839.034180 
	C1007.560181,831.668945 1007.560181,824.755432 1007.560181,817.224792 
	C1009.606262,817.224792 1011.386414,817.224792 1013.166626,817.224731 
	C1082.663940,817.224426 1152.161499,817.273071 1221.658447,817.109497 
	C1226.085449,817.099121 1228.420410,818.530396 1230.750854,822.175354 
	C1260.174194,868.196777 1289.777588,914.102966 1319.320679,960.047791 
	C1319.923950,960.985840 1320.355225,962.034424 1321.144897,963.573730 
	C1167.260010,963.573730 1013.915710,963.573730 860.184204,963.573730 
	C860.083374,961.637451 859.893555,959.688049 859.893066,957.738647 
	C859.877808,889.407898 859.915222,821.077087 859.793518,752.746582 
	C859.786194,748.639954 861.072021,746.105896 864.348267,743.636475 
	C890.820312,723.683777 917.148438,703.540222 943.513306,683.445435 
	C944.944763,682.354492 946.312439,681.179871 948.195862,679.649048 
	C944.499878,676.702942 941.221130,673.986511 937.836914,671.408447 
	C913.056396,652.530762 888.282959,633.643494 863.416565,614.879456 
	C860.901245,612.981323 859.807617,611.078918 859.811829,607.868713 
	C859.902100,538.871399 859.878601,469.873962 859.891663,400.876556 
	C859.892029,399.236023 860.060608,397.595459 860.170349,395.598633 
	C1013.871460,395.598633 1167.270264,395.598633 1321.335571,395.598633 
	C1320.354370,397.348389 1319.575806,398.923157 1318.632324,400.391998 
	C1289.741821,445.366180 1260.790161,490.301239 1232.013306,535.348022 
	C1229.632446,539.074951 1227.002319,540.244263 1222.705200,540.236267 
	C1152.883667,540.106079 1083.061890,540.141113 1013.240112,540.138733 
	C1011.445679,540.138672 1009.651245,540.138733 1007.572876,540.138733 
	C1007.572876,532.603271 1007.572876,525.683777 1007.572876,518.233643 
	C1009.781311,518.131897 1011.876221,517.951538 1013.971191,517.951050 
	C1079.968750,517.936157 1145.966187,517.922913 1211.963745,517.989014 
	C1215.019287,517.992065 1217.108154,517.426025 1218.926514,514.574524 
	C1238.623169,483.684845 1258.482056,452.898529 1278.275635,422.070587 
	C1278.955200,421.012207 1279.417358,419.814209 1280.324341,417.991058 
	C1147.349243,417.991058 1015.040039,417.991058 882.056335,417.991058 
	C882.056335,421.841492 882.056152,425.452972 882.056458,429.064423 
	C882.060913,484.198730 882.116882,539.333130 881.975037,594.467102 
	C881.963318,599.033997 883.105896,602.076172 886.887451,604.918884 
	C912.451843,624.136414 937.862793,643.558899 963.226746,663.040894 
	C966.000183,665.171082 967.798462,665.048035 970.543823,662.945984 
	C998.056458,641.880859 1025.611206,620.868408 1053.376465,600.138855 
	C1056.624634,597.713745 1061.189819,595.891174 1065.182251,595.816895 
	C1087.340454,595.404358 1109.510986,595.545105 1131.674927,595.750610 
	C1133.561523,595.768127 1136.172241,597.164124 1137.197388,598.734985 
	C1154.126709,624.678467 1170.896118,650.727051 1187.515747,676.870117 
	C1188.384155,678.236023 1188.347534,681.130920 1187.469971,682.511780 
	C1170.946899,708.511536 1154.291504,734.428406 1137.432739,760.211670 
	C1136.250854,762.019348 1133.282471,763.650146 1131.124878,763.675415 
	C1109.470337,763.928650 1087.805786,764.092224 1066.158813,763.611267 
	C1061.671997,763.511597 1056.588501,761.558838 1052.907837,758.899170 
	C1037.793579,747.976990 1023.114868,736.451965 1007.990723,724.933838 
M1061.329224,621.689941 
	C1036.120605,640.876892 1010.912048,660.063904 985.441345,679.450378 
	C986.677246,680.594543 987.233765,681.201965 987.878601,681.693481 
	C1013.293335,701.063416 1038.700195,720.443909 1064.182983,739.724060 
	C1065.514282,740.731506 1067.497314,741.335510 1069.182251,741.347107 
	C1086.168945,741.464233 1103.157593,741.487854 1120.143188,741.306152 
	C1121.765137,741.288818 1124.009644,740.122498 1124.886597,738.783264 
	C1137.012085,720.266479 1148.888916,701.586731 1160.998291,683.059082 
	C1162.762451,680.359741 1162.482300,678.484558 1160.838989,675.961243 
	C1149.031616,657.831177 1137.293091,639.655212 1125.695679,621.390381 
	C1123.946533,618.635559 1122.020142,617.692749 1118.818115,617.724915 
	C1103.167236,617.882019 1087.512573,617.903259 1071.862183,617.719727 
	C1067.952637,617.673950 1064.670410,618.466431 1061.329224,621.689941 
z"/>
<path fill="#BDB8B1" opacity="1.000000" stroke="none" 
	d="
M1493.684448,1113.004150 
	C1491.088135,1124.146484 1484.942749,1131.942993 1474.110474,1136.344116 
	C1482.167358,1153.009766 1489.968018,1169.145264 1498.232910,1186.241089 
	C1491.193970,1186.241089 1484.790649,1186.451294 1478.425415,1186.052368 
	C1477.245117,1185.978271 1475.934692,1183.589600 1475.166016,1182.031616 
	C1468.760376,1169.047729 1462.365479,1156.056030 1456.211914,1142.952026 
	C1454.640259,1139.605103 1452.638672,1138.389404 1448.955811,1138.412720 
	C1435.675049,1138.496582 1435.674316,1138.370850 1435.674194,1151.792236 
	C1435.674072,1161.782959 1435.566528,1171.775513 1435.732178,1181.763428 
	C1435.789062,1185.197388 1434.671265,1186.398560 1431.159180,1186.471558 
	C1416.323730,1186.779663 1416.325684,1186.879272 1416.325806,1172.098755 
	C1416.325806,1139.462524 1416.425903,1106.825806 1416.218506,1074.190918 
	C1416.187378,1069.277222 1417.718262,1067.901733 1422.473389,1068.019165 
	C1435.452881,1068.339844 1448.464355,1067.760010 1461.424927,1068.361450 
	C1483.416992,1069.382202 1496.311279,1084.714600 1494.295898,1106.622681 
	C1494.112915,1108.611450 1493.951904,1110.602417 1493.684448,1113.004150 
M1435.614990,1106.455811 
	C1435.558105,1112.728516 1436.608398,1119.190186 1432.338745,1124.013916 
	C1438.012573,1123.584961 1443.574585,1123.112183 1449.144409,1122.762451 
	C1452.619019,1122.544189 1456.139648,1122.781738 1459.579834,1122.344360 
	C1469.102905,1121.133911 1475.232788,1113.728271 1475.348877,1103.642456 
	C1475.467529,1093.334351 1469.733887,1085.542114 1460.238281,1084.493286 
	C1451.045654,1083.477905 1441.744873,1083.440918 1433.441284,1083.022095 
	C1434.112793,1086.570312 1435.127441,1090.511719 1435.536621,1094.515015 
	C1435.906372,1098.132080 1435.614624,1101.816650 1435.614990,1106.455811 
z"/>
<path fill="#BFBAB2" opacity="1.000000" stroke="none" 
	d="
M1560.826904,1171.195068 
	C1542.588257,1149.210449 1541.194458,1109.938354 1557.647827,1087.188110 
	C1578.581177,1058.242798 1623.052856,1060.880737 1639.864380,1092.409790 
	C1651.303223,1113.862183 1651.673340,1136.426758 1641.889404,1158.387939 
	C1627.276123,1191.188843 1585.870972,1197.564575 1560.826904,1171.195068 
M1626.525146,1108.387085 
	C1625.742798,1106.549683 1625.048584,1104.668579 1624.163330,1102.882202 
	C1619.102295,1092.668945 1611.438477,1085.853516 1599.651611,1084.936035 
	C1587.945801,1084.024780 1578.741577,1088.823364 1572.788452,1098.742920 
	C1563.328247,1114.506348 1563.178955,1131.473999 1569.064819,1148.293091 
	C1574.185303,1162.924561 1585.730957,1170.626221 1598.709229,1169.811523 
	C1612.077026,1168.972290 1622.583740,1159.817017 1626.696289,1145.165405 
	C1630.055420,1133.197388 1629.883667,1121.169678 1626.525146,1108.387085 
z"/>
<path fill="#BFB9B2" opacity="1.000000" stroke="none" 
	d="
M1360.020142,1123.876221 
	C1359.375000,1135.123169 1359.950439,1146.140625 1357.795532,1156.595093 
	C1354.660156,1171.804932 1344.283691,1181.503784 1329.272583,1185.683716 
	C1310.427856,1190.931152 1291.078979,1184.659424 1280.589722,1170.024658 
	C1274.970337,1162.184448 1272.706055,1153.183960 1272.678955,1143.640015 
	C1272.612183,1120.146606 1272.726074,1096.652344 1272.581909,1073.159790 
	C1272.557861,1069.235718 1273.778687,1068.020264 1277.738770,1068.034058 
	C1291.875244,1068.083374 1291.875610,1067.942383 1291.875732,1081.997925 
	C1291.875732,1101.325928 1291.845093,1120.654175 1291.905762,1139.981934 
	C1291.916138,1143.302734 1291.986694,1146.683838 1292.594727,1149.931152 
	C1294.921143,1162.353394 1304.674316,1170.202759 1316.987427,1169.836548 
	C1329.554688,1169.462769 1338.941772,1160.936401 1340.227905,1148.103149 
	C1340.856079,1141.833984 1340.611084,1135.470703 1340.642090,1129.149414 
	C1340.734497,1110.323975 1340.862061,1091.497681 1340.740967,1072.673096 
	C1340.718140,1069.130859 1341.764160,1068.101807 1345.245483,1068.052856 
	C1360.021240,1067.846069 1360.020264,1067.747192 1360.020630,1082.406128 
	C1360.020996,1096.069092 1360.020508,1109.732056 1360.020142,1123.876221 
z"/>
<path fill="#BFBAB2" opacity="1.000000" stroke="none" 
	d="
M1012.346497,1082.017090 
	C1012.350159,1101.668213 1012.343323,1120.822876 1012.366577,1139.977661 
	C1012.369385,1142.306030 1012.429810,1144.643433 1012.640137,1146.960693 
	C1013.869568,1160.506348 1023.298767,1169.543335 1036.462402,1169.857544 
	C1049.423462,1170.166870 1059.537720,1161.258301 1060.773193,1147.634521 
	C1061.523071,1139.366455 1061.303101,1131.001709 1061.341919,1122.679565 
	C1061.418701,1106.189453 1061.470581,1089.697754 1061.305176,1073.208984 
	C1061.266968,1069.395264 1062.195923,1067.729858 1066.318848,1068.050537 
	C1070.758789,1068.395752 1075.246460,1068.128662 1080.072632,1068.128662 
	C1080.187256,1070.378540 1080.357422,1072.176880 1080.358887,1073.975586 
	C1080.376831,1096.962402 1080.451294,1119.949463 1080.345215,1142.935791 
	C1080.260498,1161.307251 1073.062866,1175.931519 1055.745728,1183.444092 
	C1039.119019,1190.657349 1022.757568,1188.926025 1008.191162,1177.583130 
	C998.555420,1170.079712 993.924072,1159.566895 993.496155,1147.579834 
	C992.967712,1132.774414 993.192627,1117.941284 993.135803,1103.119995 
	C993.096191,1092.792725 993.210876,1082.464233 993.081665,1072.138428 
	C993.043762,1069.106445 994.092957,1067.779907 997.132446,1068.120605 
	C997.790344,1068.194336 998.463806,1068.130127 999.130066,1068.128052 
	C1012.376770,1068.088379 1012.376770,1068.088257 1012.346497,1082.017090 
z"/>
<path fill="#BFB9B2" opacity="1.000000" stroke="none" 
	d="
M551.492615,1171.580200 
	C568.456482,1171.269043 585.419861,1170.906738 602.385132,1170.769043 
	C603.439575,1170.760376 605.336975,1172.443604 605.424805,1173.462036 
	C605.777039,1177.544922 605.570374,1181.675903 605.570374,1186.084961 
	C581.177551,1186.084961 557.444214,1186.084961 533.043945,1186.084961 
	C533.043945,1184.261841 533.043884,1182.653687 533.043945,1181.045654 
	C533.044495,1145.253174 533.124329,1109.460449 532.944153,1073.668823 
	C532.921875,1069.249512 534.113647,1067.978882 538.532959,1068.027710 
	C558.523071,1068.248779 578.517761,1068.209351 598.509155,1068.052612 
	C602.463928,1068.021606 604.041687,1068.843262 603.913940,1073.276123 
	C603.607788,1083.896973 603.864990,1083.918091 593.490417,1083.940796 
	C584.176208,1083.961304 574.857605,1084.116211 565.549377,1083.879150 
	C560.721008,1083.756104 555.911011,1082.912964 552.139221,1082.507690 
	C552.139221,1092.739258 552.227905,1103.986206 552.085144,1115.230225 
	C552.042236,1118.605835 553.445496,1119.472046 556.561890,1119.438354 
	C567.889709,1119.315796 579.221375,1119.506470 590.547668,1119.327148 
	C594.037659,1119.272095 595.369385,1120.382568 595.131958,1123.892456 
	C594.897949,1127.351685 595.080872,1130.839111 595.080872,1135.132812 
	C592.283630,1135.132812 589.859070,1135.132446 587.434448,1135.132935 
	C577.104919,1135.134766 566.774292,1135.223267 556.446594,1135.087769 
	C553.222717,1135.045532 552.018860,1136.158813 552.086792,1139.418091 
	C552.246521,1147.078491 552.257385,1154.747803 552.059509,1162.406616 
	C551.997192,1164.819580 551.079895,1167.210571 550.113037,1170.127075 
	C549.587402,1171.198730 549.502563,1171.754883 549.417725,1172.311035 
	C550.109375,1172.067505 550.801025,1171.823853 551.492615,1171.580200 
z"/>
<path fill="#BCB7AF" opacity="1.000000" stroke="none" 
	d="
M936.895142,1073.454346 
	C936.698364,1085.231323 938.666748,1083.883057 926.843689,1083.938354 
	C915.859558,1083.989746 904.873901,1084.027710 893.891174,1083.890625 
	C890.452576,1083.847778 887.021362,1083.217773 882.796204,1082.773193 
	C882.796204,1095.576782 882.796204,1108.538208 882.796204,1121.052246 
	C894.343018,1121.052246 906.764099,1121.052979 919.185181,1121.051758 
	C926.389160,1121.051025 926.434326,1121.050049 926.377747,1128.030640 
	C926.301025,1137.505371 927.769897,1136.891724 917.590027,1136.895142 
	C908.099609,1136.898315 898.605103,1137.060425 889.120667,1136.822144 
	C885.041260,1136.719727 883.551025,1138.001831 883.616211,1142.185425 
	C883.818604,1155.169067 883.528198,1168.161011 883.775818,1181.143188 
	C883.857422,1185.419189 882.370178,1186.795898 878.291748,1186.461304 
	C874.984009,1186.189941 871.631714,1186.295776 868.307678,1186.435425 
	C865.236145,1186.564575 864.272522,1185.195679 864.277588,1182.244995 
	C864.340698,1145.615601 864.353516,1108.986084 864.277588,1072.356812 
	C864.270569,1068.977417 865.711792,1068.062988 868.791321,1068.072266 
	C890.102905,1068.136353 911.415344,1068.177490 932.726257,1068.040039 
	C936.628906,1068.015015 937.180298,1069.971558 936.895142,1073.454346 
z"/>
<path fill="#BFB9B2" opacity="1.000000" stroke="none" 
	d="
M1185.476685,1087.382935 
	C1185.762451,1089.426392 1186.001953,1091.080200 1186.003296,1092.734375 
	C1186.026367,1122.051880 1185.919312,1151.370239 1186.123047,1180.686279 
	C1186.155884,1185.410767 1184.671387,1186.588013 1180.124268,1186.498779 
	C1166.870972,1186.238525 1166.867188,1186.429810 1166.867188,1173.135498 
	C1166.867188,1149.315063 1166.813477,1125.494263 1166.904297,1101.674194 
	C1166.927490,1095.616577 1167.410156,1089.560913 1167.681641,1083.505859 
	C1158.273071,1083.505859 1148.042847,1083.505859 1137.047852,1083.505859 
	C1137.047852,1079.128540 1136.882080,1074.716187 1137.197510,1070.338623 
	C1137.255737,1069.531494 1139.258057,1068.231689 1140.368408,1068.226074 
	C1164.354858,1068.103638 1188.341919,1068.132324 1212.328979,1068.135620 
	C1212.827881,1068.135742 1213.491333,1067.980347 1213.801147,1068.234741 
	C1218.103516,1071.767334 1215.037231,1076.550415 1215.810913,1080.702393 
	C1216.329834,1083.486328 1214.359253,1083.952026 1212.076538,1083.942871 
	C1202.665161,1083.905029 1193.253540,1083.927002 1183.845825,1083.927002 
	C1184.098267,1084.452393 1184.708862,1085.722900 1185.476685,1087.382935 
z"/>
<path fill="#BFBAB2" opacity="1.000000" stroke="none" 
	d="
M711.998047,1186.388916 
	C696.509033,1186.388794 681.518921,1186.308350 666.530945,1186.450684 
	C663.180420,1186.482422 661.798706,1185.649414 661.809204,1182.016357 
	C661.915222,1145.376099 661.871277,1108.735352 661.893494,1072.094727 
	C661.894165,1070.961548 662.154724,1069.828735 662.359924,1068.160278 
	C667.780151,1068.160278 673.097107,1067.905762 678.347534,1068.383301 
	C679.350647,1068.474487 680.824463,1071.445923 680.840759,1073.100708 
	C681.032227,1092.584717 680.988281,1112.071045 681.003967,1131.556763 
	C681.010315,1139.383301 681.143799,1147.213013 680.967957,1155.035522 
	C680.846497,1160.436523 680.293701,1165.828003 679.972900,1170.635620 
	C694.454224,1170.635620 709.708679,1170.818604 724.954163,1170.529785 
	C729.855225,1170.437012 731.268860,1172.044312 731.104065,1176.799072 
	C730.717346,1187.955566 732.194824,1186.246338 721.491150,1186.383057 
	C718.493835,1186.421387 715.495605,1186.389038 711.998047,1186.388916 
M678.139526,1171.522583 
	C678.347290,1171.605591 678.555115,1171.688599 678.762878,1171.771606 
	C678.704041,1171.554077 678.645203,1171.336426 678.139526,1171.522583 
z"/>
<path fill="#BBB6AE" opacity="1.000000" stroke="none" 
	d="
M170.731537,1322.104736 
	C166.003311,1322.116089 161.526413,1322.116089 156.562744,1322.116089 
	C156.392319,1320.279419 156.118744,1318.692383 156.116791,1317.105103 
	C156.088882,1294.459473 156.186874,1271.813354 156.016617,1249.168945 
	C155.985428,1245.021729 157.258987,1243.662109 161.418396,1243.747314 
	C172.901566,1243.982544 184.392685,1243.811401 195.880539,1243.842651 
	C202.436050,1243.860596 210.597580,1251.987427 210.626587,1258.463623 
	C210.640762,1261.627319 210.629318,1264.791138 210.629288,1267.954834 
	C210.629227,1275.608643 210.629181,1275.608643 206.469040,1280.997925 
	C206.533173,1281.291382 206.494095,1281.758301 206.683258,1281.885498 
	C217.221481,1288.967407 213.896149,1299.797485 213.919815,1309.557861 
	C213.930389,1313.919312 203.844696,1322.068604 199.427032,1322.079468 
	C189.945679,1322.102539 180.464264,1322.090698 170.731537,1322.104736 
M165.099350,1305.433594 
	C165.099350,1308.188721 165.099350,1310.943848 165.099350,1314.102661 
	C175.617767,1314.102661 185.394623,1314.130615 195.171219,1314.091797 
	C200.739853,1314.069702 205.048645,1309.719482 205.108871,1304.151245 
	C205.137619,1301.493408 205.159592,1298.834106 205.101852,1296.177246 
	C205.003616,1291.655518 200.546860,1286.746094 196.100693,1286.673462 
	C186.966019,1286.524048 177.826279,1286.700439 168.690689,1286.582520 
	C165.760513,1286.544678 164.985748,1287.857910 165.049988,1290.504150 
	C165.162766,1295.149902 165.070648,1299.800781 165.099350,1305.433594 
M174.580200,1278.900635 
	C179.741867,1278.902832 184.932358,1278.566406 190.057129,1279.002441 
	C195.188293,1279.438965 199.923859,1277.764893 201.066330,1273.304199 
	C202.518326,1267.634644 203.710709,1261.167114 199.944992,1255.586914 
	C198.904129,1254.044678 196.952026,1252.152954 195.364029,1252.101807 
	C185.447174,1251.783203 175.514969,1251.941040 165.695038,1251.941040 
	C165.384171,1253.036011 165.140686,1253.501099 165.136475,1253.968262 
	C165.086838,1259.462524 164.992844,1264.958130 165.067413,1270.451294 
	C165.200607,1280.264160 163.867828,1278.721802 174.580200,1278.900635 
z"/>
<path fill="#B8B3AB" opacity="1.000000" stroke="none" 
	d="
M744.824341,1279.001343 
	C744.831848,1293.461182 744.831848,1307.420166 744.831848,1321.749268 
	C742.041016,1321.749268 739.462585,1321.749268 736.300598,1321.749268 
	C736.214417,1320.281616 736.039734,1318.685547 736.039307,1317.089478 
	C736.033813,1294.613525 735.995911,1272.137207 736.164062,1249.662354 
	C736.178467,1247.733276 737.251892,1244.458252 738.432861,1244.156738 
	C741.434082,1243.390625 744.704102,1243.031372 747.057434,1246.835815 
	C757.914246,1264.387207 769.071289,1281.752686 780.132385,1299.177490 
	C781.086792,1300.681030 782.126282,1302.130615 784.297913,1303.497437 
	C784.504578,1302.032227 784.886475,1300.567505 784.890991,1299.101685 
	C784.940308,1282.950562 784.974976,1266.799072 784.917664,1250.648071 
	C784.891968,1243.405518 785.598755,1242.802490 793.386353,1244.571045 
	C793.386353,1270.096802 793.386353,1295.684326 793.392395,1321.272217 
	C786.315002,1323.242920 785.307068,1322.894897 781.671814,1317.163574 
	C770.973206,1300.295898 760.289001,1283.418945 749.565491,1266.567139 
	C748.641418,1265.114990 747.468750,1263.821167 746.411560,1262.453735 
	C745.880005,1262.585449 745.348389,1262.717041 744.816833,1262.848755 
	C744.816833,1268.066040 744.816833,1273.283203 744.824341,1279.001343 
z"/>
<path fill="#BAB5AE" opacity="1.000000" stroke="none" 
	d="
M1864.028320,1313.802002 
	C1864.020874,1291.697388 1864.037964,1270.062500 1863.889282,1248.428833 
	C1863.865356,1244.958740 1865.044800,1243.733154 1868.517578,1243.771973 
	C1880.831177,1243.909546 1893.147583,1243.771484 1905.462402,1243.839478 
	C1910.874756,1243.869385 1919.265137,1252.455933 1919.382324,1257.920166 
	C1919.435791,1260.415527 1919.269897,1262.920410 1919.417725,1265.408325 
	C1919.921753,1273.889648 1920.265991,1282.273560 1909.802124,1287.522583 
	C1923.868774,1296.665771 1919.053833,1309.715332 1919.507935,1321.814209 
	C1916.427490,1321.814209 1913.827393,1321.814209 1910.596802,1321.814209 
	C1910.596802,1316.253174 1910.607056,1310.986206 1910.594238,1305.719116 
	C1910.575317,1298.014771 1902.134521,1289.436157 1894.556885,1289.419189 
	C1889.230713,1289.407349 1883.884644,1289.702515 1878.584595,1289.330933 
	C1874.026733,1289.011230 1872.928955,1290.796509 1873.071411,1295.057617 
	C1873.364990,1303.842651 1873.159668,1312.644165 1873.159668,1321.773193 
	C1870.060425,1321.773193 1867.338745,1321.773193 1863.997803,1321.773193 
	C1863.997803,1319.175171 1863.997803,1316.723755 1864.028320,1313.802002 
M1884.533203,1251.821289 
	C1881.701904,1251.829834 1878.839844,1251.603760 1876.054932,1251.967773 
	C1875.006226,1252.104736 1873.330566,1253.589233 1873.309082,1254.491943 
	C1873.101318,1263.263306 1873.184570,1272.041382 1873.184570,1281.390259 
	C1882.933105,1281.390259 1892.054688,1281.423462 1901.176025,1281.378052 
	C1906.770386,1281.350342 1910.295166,1277.732666 1910.351929,1272.062256 
	C1910.386841,1268.565186 1910.390625,1265.067017 1910.354492,1261.570068 
	C1910.289062,1255.241699 1906.890259,1251.872559 1900.514526,1251.828979 
	C1895.518188,1251.794922 1890.521240,1251.821655 1884.533203,1251.821289 
z"/>
<path fill="#BAB5AE" opacity="1.000000" stroke="none" 
	d="
M570.256226,1322.083496 
	C564.701599,1322.094727 559.397034,1322.094727 553.732300,1322.094727 
	C553.732300,1296.005859 553.732300,1270.283203 553.732300,1243.831787 
	C558.811890,1243.831787 563.757690,1243.833618 568.703491,1243.831421 
	C577.198792,1243.827637 585.697693,1243.963013 594.187622,1243.747070 
	C597.650696,1243.659180 599.883972,1245.136475 602.508240,1247.196411 
	C609.560730,1252.732788 611.917664,1259.456909 611.350220,1268.390137 
	C610.580688,1280.502563 611.029846,1292.703003 611.237427,1304.860840 
	C611.299438,1308.494995 609.897949,1310.864258 607.695312,1313.642456 
	C602.239868,1320.522827 595.718994,1323.318481 586.964661,1322.218506 
	C581.557739,1321.539062 575.997559,1322.079468 570.256226,1322.083496 
M562.615784,1263.517212 
	C562.615784,1280.128418 562.615784,1296.739624 562.615784,1313.892578 
	C573.174988,1313.892578 583.121887,1314.025513 593.061829,1313.818115 
	C596.394043,1313.748535 601.950439,1307.118286 601.961121,1303.713501 
	C602.004639,1289.885498 602.005371,1276.057007 601.958191,1262.229126 
	C601.947327,1259.057495 596.610168,1252.264282 593.522156,1252.186890 
	C583.420959,1251.933472 573.309448,1252.091675 562.615784,1252.091675 
	C562.615784,1255.947144 562.615784,1259.235229 562.615784,1263.517212 
z"/>
<path fill="#BAB5AE" opacity="1.000000" stroke="none" 
	d="
M1146.619263,1315.764038 
	C1146.619385,1318.020142 1146.619385,1319.809326 1146.619385,1321.844971 
	C1143.353027,1321.844971 1140.600830,1321.844971 1137.594971,1321.844971 
	C1137.509277,1320.483643 1137.377075,1319.356934 1137.376465,1318.230347 
	C1137.364258,1295.090698 1137.427979,1271.950562 1137.301636,1248.811646 
	C1137.282227,1245.266235 1138.130859,1243.705322 1141.994629,1243.716309 
	C1145.835083,1243.727295 1146.761597,1245.245972 1146.688477,1248.812988 
	C1146.488037,1258.605713 1146.619385,1268.405396 1146.619385,1278.976685 
	C1152.980225,1278.976685 1158.886841,1278.976929 1164.793457,1278.976685 
	C1170.120605,1278.976562 1175.462769,1278.728271 1180.770020,1279.053345 
	C1185.049805,1279.315430 1186.162231,1277.663818 1186.026855,1273.601074 
	C1185.750122,1265.287842 1186.045410,1256.956909 1185.908203,1248.636597 
	C1185.855103,1245.413696 1186.559204,1243.752563 1190.293701,1243.720215 
	C1194.080200,1243.687500 1195.113525,1245.041138 1195.090820,1248.688721 
	C1194.954224,1270.662354 1195.023560,1292.637207 1195.023071,1314.611572 
	C1195.022827,1322.760254 1195.021729,1322.760254 1185.961426,1321.622070 
	C1185.961426,1312.089966 1185.745239,1302.473022 1186.056030,1292.873047 
	C1186.203247,1288.324707 1184.878906,1286.871582 1180.211182,1287.021240 
	C1169.248901,1287.372925 1158.267578,1287.133911 1146.619141,1287.133911 
	C1146.619141,1296.733398 1146.619141,1306.015259 1146.619263,1315.764038 
z"/>
<path fill="#BCB7AF" opacity="1.000000" stroke="none" 
	d="
M906.124146,1313.052979 
	C900.665771,1320.564575 893.768982,1323.547974 884.828552,1322.165283 
	C881.576172,1321.662231 878.050476,1321.492188 874.874451,1322.191650 
	C864.304016,1324.519775 858.076050,1318.279907 852.243774,1311.248657 
	C851.204346,1309.995483 850.715637,1307.931030 850.703125,1306.235718 
	C850.588684,1290.741821 850.540100,1275.245239 850.750916,1259.753418 
	C850.778931,1257.695801 852.033203,1255.423950 853.287231,1253.653442 
	C858.917175,1245.705322 866.396240,1242.113647 876.365112,1243.713867 
	C880.588196,1244.391724 885.117615,1244.450439 889.319397,1243.714722 
	C899.297119,1241.967651 903.382080,1249.701416 908.618042,1255.297119 
	C909.945190,1256.715332 909.252991,1260.023071 909.528259,1262.873047 
	C906.276855,1262.873047 903.534912,1262.873047 900.793518,1262.873047 
	C899.774780,1256.795044 893.705444,1250.665649 886.753357,1251.884155 
	C882.712219,1252.592407 878.445435,1252.012573 874.280151,1252.013062 
	C864.164490,1252.014038 859.891235,1256.260986 859.890625,1266.316528 
	C859.889954,1278.312500 859.872986,1290.308472 859.898438,1302.304443 
	C859.911316,1308.348877 865.458374,1313.906006 871.462341,1313.930420 
	C877.125549,1313.953613 882.807922,1314.205078 888.443298,1313.808716 
	C890.836792,1313.640259 893.339355,1312.403076 895.427673,1311.077271 
	C899.415771,1308.545410 900.817078,1304.738525 900.252258,1299.958252 
	C899.865356,1296.683960 900.178223,1293.326782 900.178223,1289.319824 
	C894.333313,1289.319824 888.784546,1289.319824 883.025513,1289.319824 
	C883.025513,1286.224365 883.025513,1283.820679 883.025513,1281.214111 
	C891.858887,1281.214111 900.305542,1281.214111 909.336487,1281.214111 
	C909.336487,1290.402588 909.472656,1299.377441 909.203735,1308.340210 
	C909.158386,1309.852173 907.365356,1311.311768 906.124146,1313.052979 
z"/>
<path fill="#BBB6AE" opacity="1.000000" stroke="none" 
	d="
M1753.763916,1243.842529 
	C1757.787964,1243.745850 1757.394409,1246.337646 1757.393555,1248.689575 
	C1757.387451,1266.350464 1757.377808,1284.011475 1757.392212,1301.672363 
	C1757.397827,1308.593140 1762.558472,1313.858643 1769.374878,1313.922974 
	C1773.705933,1313.963867 1778.037598,1313.956909 1782.368896,1313.955688 
	C1792.760864,1313.952881 1797.096924,1309.661865 1797.097412,1299.390747 
	C1797.098267,1282.562378 1797.163940,1265.733398 1797.042725,1248.905884 
	C1797.018066,1245.475342 1797.694214,1243.720703 1801.667358,1243.702271 
	C1805.732178,1243.683472 1806.226196,1245.589111 1806.206543,1248.948486 
	C1806.097290,1267.608887 1806.057739,1286.271362 1806.236938,1304.930664 
	C1806.271973,1308.590210 1804.788086,1310.913208 1802.641113,1313.690308 
	C1797.218628,1320.704712 1790.534912,1323.415161 1781.876221,1322.161987 
	C1779.105713,1321.760864 1776.175537,1321.763306 1773.406860,1322.174927 
	C1764.006104,1323.572998 1756.461304,1320.730469 1751.185425,1312.756958 
	C1749.821289,1310.695435 1748.456421,1308.122803 1748.428955,1305.769287 
	C1748.207275,1286.777466 1748.422363,1267.780640 1748.211182,1248.788696 
	C1748.165649,1244.692505 1749.543945,1243.285400 1753.763916,1243.842529 
z"/>
<path fill="#BAB5AE" opacity="1.000000" stroke="none" 
	d="
M1577.365967,1299.855713 
	C1577.366089,1281.095093 1577.366089,1262.815552 1577.366089,1244.117065 
	C1579.696411,1244.004395 1581.614624,1243.476562 1583.219727,1243.969238 
	C1584.546997,1244.376587 1586.471802,1245.980225 1586.482056,1247.069580 
	C1586.674072,1267.387573 1586.655518,1287.708008 1586.527710,1308.026978 
	C1586.519653,1309.297974 1585.396362,1310.672485 1584.540771,1311.809814 
	C1578.677002,1319.604614 1571.417725,1324.143921 1561.119019,1322.168701 
	C1558.390259,1321.645264 1555.418335,1321.753784 1552.652100,1322.180786 
	C1544.138062,1323.495361 1537.655640,1320.708984 1532.304565,1313.916870 
	C1530.032471,1311.032715 1528.466064,1308.583740 1528.508667,1304.736328 
	C1528.708130,1286.750488 1528.596191,1268.761108 1528.597534,1250.773071 
	C1528.598145,1243.257080 1529.250122,1242.780151 1537.830811,1244.628052 
	C1537.830811,1248.904175 1537.830811,1253.335815 1537.830811,1257.767578 
	C1537.830811,1272.591064 1537.820068,1287.414551 1537.836426,1302.238037 
	C1537.843018,1308.289917 1543.342285,1313.875854 1549.296143,1313.907593 
	C1554.125244,1313.933350 1558.954590,1313.928223 1563.783813,1313.925049 
	C1572.761719,1313.919067 1577.345093,1309.329590 1577.365967,1299.855713 
z"/>
<path fill="#BCB7AF" opacity="1.000000" stroke="none" 
	d="
M267.852722,1304.582275 
	C267.852722,1284.194458 267.852722,1264.257446 267.852722,1244.442139 
	C276.878571,1243.029541 277.109192,1243.246094 277.101013,1251.383545 
	C277.083984,1268.366455 277.087738,1285.349243 277.114532,1302.332153 
	C277.124176,1308.430420 282.596558,1313.874756 288.695862,1313.915405 
	C293.191803,1313.945312 297.688049,1313.941040 302.184143,1313.936157 
	C312.513458,1313.925049 316.625275,1309.727905 316.633698,1299.224976 
	C316.646515,1283.239990 316.770294,1267.254028 316.643219,1251.270264 
	C316.580017,1243.319824 316.874054,1242.919556 325.890259,1244.557007 
	C325.890259,1246.189819 325.890228,1247.958252 325.890259,1249.726685 
	C325.890289,1267.715332 325.762024,1285.705444 325.983551,1303.691406 
	C326.036835,1308.014404 324.604584,1310.972900 321.826965,1314.241333 
	C316.811829,1320.142456 311.297882,1323.422241 303.328308,1322.188965 
	C299.913147,1321.660522 296.277344,1321.630737 292.867981,1322.170898 
	C283.541901,1323.648438 276.264191,1320.602661 271.081146,1312.882935 
	C269.535828,1310.581421 268.903412,1307.666870 267.852722,1304.582275 
z"/>
<path fill="#BCB7AF" opacity="1.000000" stroke="none" 
	d="
M2028.641113,1248.943604 
	C2028.635742,1252.542236 2026.294434,1251.999023 2024.370239,1252.002563 
	C2013.543213,1252.022827 2002.712402,1252.180542 1991.891357,1251.925171 
	C1987.943604,1251.832031 1986.591064,1252.989868 1986.814209,1256.968018 
	C1987.121704,1262.447510 1987.157471,1267.974365 1986.807007,1273.448730 
	C1986.529541,1277.782471 1988.263428,1278.798096 1992.259888,1278.685913 
	C2001.081055,1278.437988 2009.914062,1278.607422 2018.742188,1278.610107 
	C2026.072144,1278.612427 2026.278198,1278.878418 2024.635376,1286.890503 
	C2014.323364,1286.890503 2003.880981,1286.886841 1993.438599,1286.891846 
	C1986.901367,1286.895020 1986.897095,1286.901001 1986.891724,1293.343140 
	C1986.886353,1299.968506 1986.890503,1306.593872 1986.890503,1313.953857 
	C1993.678589,1313.953857 1999.944092,1313.955811 2006.209595,1313.953369 
	C2011.537964,1313.951294 2016.866333,1313.940796 2022.194702,1313.939941 
	C2029.233398,1313.938843 2029.266968,1313.983032 2028.124878,1321.738037 
	C2011.630615,1321.738037 1995.078247,1321.738037 1978.152466,1321.738037 
	C1978.052246,1320.119019 1977.866943,1318.508911 1977.865479,1316.898438 
	C1977.846436,1294.411621 1977.958252,1271.923706 1977.760498,1249.438721 
	C1977.722168,1245.083984 1978.918823,1243.649658 1983.376953,1243.737549 
	C1996.862183,1244.003052 2010.357300,1243.935059 2023.845581,1243.761597 
	C2027.468872,1243.715088 2029.257080,1244.697388 2028.641113,1248.943604 
z"/>
<path fill="#BCB7AF" opacity="1.000000" stroke="none" 
	d="
M1297.394287,1278.621094 
	C1301.951660,1278.829590 1301.103638,1282.053223 1300.546387,1284.135620 
	C1300.225952,1285.332397 1297.902954,1286.730103 1296.448975,1286.766968 
	C1287.122681,1287.004272 1277.787598,1286.889648 1268.455322,1286.890503 
	C1266.663208,1286.890747 1264.870972,1286.890625 1262.725464,1286.890625 
	C1262.725464,1296.036865 1262.725464,1304.610229 1262.725464,1313.941284 
	C1268.300537,1313.941284 1273.737061,1313.942261 1279.173584,1313.940918 
	C1285.337524,1313.939575 1291.501343,1313.933228 1297.665283,1313.934326 
	C1304.640137,1313.935547 1304.754150,1314.085449 1303.475342,1321.800171 
	C1286.966309,1321.800171 1270.406982,1321.800171 1253.478271,1321.800171 
	C1253.478271,1295.989136 1253.478271,1270.407104 1253.478271,1244.323730 
	C1270.177490,1244.323730 1286.846924,1244.323730 1303.752930,1244.323730 
	C1303.752930,1246.752075 1303.752930,1249.011597 1303.752930,1251.865479 
	C1290.089111,1251.865479 1276.691040,1251.865479 1262.494507,1251.865479 
	C1262.494507,1260.515869 1262.383789,1268.593140 1262.688477,1276.654785 
	C1262.715088,1277.358032 1265.464233,1278.493652 1266.964111,1278.519165 
	C1276.960083,1278.688721 1286.960205,1278.610962 1297.394287,1278.621094 
z"/>
<path fill="#BCB7AF" opacity="1.000000" stroke="none" 
	d="
M1436.083740,1289.251221 
	C1435.969482,1300.330811 1435.969482,1310.936401 1435.969482,1321.824219 
	C1432.704712,1321.824219 1430.116089,1321.824219 1427.163208,1321.824219 
	C1427.055664,1320.123169 1426.867065,1318.517578 1426.865723,1316.911621 
	C1426.846191,1294.441040 1426.948730,1271.969849 1426.766968,1249.500732 
	C1426.732666,1245.252808 1427.734619,1243.646240 1432.305298,1243.734985 
	C1446.754150,1244.015625 1461.211670,1243.838623 1476.029053,1243.838623 
	C1476.029053,1246.656738 1476.029053,1249.024536 1476.029053,1252.012939 
	C1465.822266,1252.012939 1455.886230,1252.012939 1445.950195,1252.012939 
	C1435.890381,1252.012939 1435.890381,1252.012939 1435.890381,1261.883179 
	C1435.890381,1267.357300 1435.890381,1272.831543 1435.890381,1278.863770 
	C1447.606689,1278.863770 1459.003296,1278.863770 1470.797607,1278.863770 
	C1470.797607,1281.817383 1470.797607,1284.221313 1470.797607,1287.406738 
	C1461.680054,1287.406738 1452.431885,1287.316772 1443.187500,1287.469238 
	C1440.851196,1287.507812 1438.527466,1288.320435 1436.083740,1289.251221 
z"/>
<path fill="#B8B3AB" opacity="1.000000" stroke="none" 
	d="
M1672.631714,1268.000366 
	C1672.631714,1286.137695 1672.631714,1303.774780 1672.631714,1321.756836 
	C1669.451660,1321.756836 1666.721680,1321.756836 1663.326660,1321.756836 
	C1663.326660,1298.550659 1663.326660,1275.478394 1663.326660,1251.893311 
	C1655.233398,1251.893311 1647.785767,1251.893311 1640.104858,1251.893311 
	C1640.104858,1249.095093 1640.104858,1246.820068 1640.104858,1244.168945 
	C1641.621216,1244.046143 1643.072754,1243.828491 1644.524536,1243.826416 
	C1660.021240,1243.803589 1675.518066,1243.852417 1691.014526,1243.783936 
	C1693.979004,1243.770752 1696.134155,1243.855469 1696.141357,1247.876343 
	C1696.148682,1251.927734 1693.937744,1251.999146 1691.004150,1251.950806 
	C1685.188599,1251.854736 1679.370361,1251.922363 1672.631714,1251.922363 
	C1672.631714,1257.354370 1672.631714,1262.427246 1672.631714,1268.000366 
z"/>
<path fill="#BBB6AE" opacity="1.000000" stroke="none" 
	d="
M1045.091064,1251.902344 
	C1039.254761,1251.902100 1033.927612,1251.902100 1028.275391,1251.902100 
	C1028.275391,1249.361084 1028.275391,1247.097656 1028.275391,1244.260620 
	C1029.952271,1244.120850 1031.693237,1243.853516 1033.434692,1243.849854 
	C1048.598633,1243.818115 1063.762451,1243.852051 1078.926392,1243.817993 
	C1081.705933,1243.811768 1084.130737,1243.495239 1084.199585,1247.701172 
	C1084.272339,1252.132935 1081.773926,1251.973877 1078.740112,1251.927856 
	C1072.930176,1251.839478 1067.118042,1251.902222 1060.732544,1251.902222 
	C1060.732544,1275.453613 1060.732544,1298.503784 1060.732544,1321.817871 
	C1057.541992,1321.817871 1054.933472,1321.817871 1051.587402,1321.817871 
	C1051.587402,1320.002808 1051.587402,1318.249390 1051.587402,1316.495972 
	C1051.587158,1296.997070 1051.442505,1277.496460 1051.690552,1258.000732 
	C1051.750977,1253.255981 1050.491699,1251.091187 1045.091064,1251.902344 
z"/>
<path fill="#BDB8B1" opacity="1.000000" stroke="none" 
	d="
M459.467010,1243.917480 
	C460.494965,1245.583618 461.647614,1247.209351 461.657745,1248.842041 
	C461.780518,1268.582886 461.734650,1288.324585 461.732697,1308.066162 
	C461.732513,1309.855347 461.732697,1311.644653 461.732697,1313.860840 
	C474.923492,1313.860840 487.667389,1313.860840 500.800537,1313.860840 
	C500.800537,1316.670166 500.800537,1319.055298 500.800537,1321.777466 
	C484.883331,1321.777466 469.021118,1321.777466 453.030609,1321.777466 
	C452.888123,1320.872803 452.650604,1320.065430 452.649780,1319.257812 
	C452.625305,1295.471802 452.714264,1271.685303 452.552917,1247.900391 
	C452.515167,1242.333740 456.256714,1244.167236 459.467010,1243.917480 
z"/>
<path fill="#BCB7AF" opacity="1.000000" stroke="none" 
	d="
M677.888428,1256.032471 
	C677.889587,1278.149048 677.889587,1299.772217 677.889587,1321.747803 
	C674.839478,1321.747803 672.262268,1321.747803 669.112305,1321.747803 
	C669.010681,1319.938965 668.812195,1318.030396 668.810242,1316.121704 
	C668.788208,1294.462036 668.795715,1272.802490 668.796509,1251.142822 
	C668.796814,1243.191895 668.908875,1243.100098 677.887207,1244.452393 
	C677.887207,1248.039551 677.887207,1251.789185 677.888428,1256.032471 
z"/>
<path fill="#BCB7AF" opacity="1.000000" stroke="none" 
	d="
M394.390930,1299.000488 
	C394.390869,1306.803955 394.390869,1314.107422 394.390869,1321.759521 
	C391.229340,1321.759521 388.510803,1321.759521 385.483063,1321.759521 
	C385.483063,1295.892944 385.483063,1270.185913 385.483063,1244.245605 
	C387.031830,1244.094727 388.334839,1244.019531 389.621643,1243.832642 
	C393.332520,1243.293701 394.507538,1244.804688 394.467163,1248.562378 
	C394.288330,1265.206665 394.390472,1281.854126 394.390930,1299.000488 
z"/>
<path fill="#281F1F" opacity="1.000000" stroke="none" 
	d="
M1061.626343,621.467896 
	C1064.670410,618.466431 1067.952637,617.673950 1071.862183,617.719727 
	C1087.512573,617.903259 1103.167236,617.882019 1118.818115,617.724915 
	C1122.020142,617.692749 1123.946533,618.635559 1125.695679,621.390381 
	C1137.293091,639.655212 1149.031616,657.831177 1160.838989,675.961243 
	C1162.482300,678.484558 1162.762451,680.359741 1160.998291,683.059082 
	C1148.888916,701.586731 1137.012085,720.266479 1124.886597,738.783264 
	C1124.009644,740.122498 1121.765137,741.288818 1120.143188,741.306152 
	C1103.157593,741.487854 1086.168945,741.464233 1069.182251,741.347107 
	C1067.497314,741.335510 1065.514282,740.731506 1064.182983,739.724060 
	C1038.700195,720.443909 1013.293335,701.063416 987.878601,681.693481 
	C987.233765,681.201965 986.677246,680.594543 985.441345,679.450378 
	C1010.912048,660.063904 1036.120605,640.876892 1061.626343,621.467896 
z"/>
<path fill="#2C2222" opacity="1.000000" stroke="none" 
	d="
M1435.614868,1105.963623 
	C1435.614624,1101.816650 1435.906372,1098.132080 1435.536621,1094.515015 
	C1435.127441,1090.511719 1434.112793,1086.570312 1433.441284,1083.022095 
	C1441.744873,1083.440918 1451.045654,1083.477905 1460.238281,1084.493286 
	C1469.733887,1085.542114 1475.467529,1093.334351 1475.348877,1103.642456 
	C1475.232788,1113.728271 1469.102905,1121.133911 1459.579834,1122.344360 
	C1456.139648,1122.781738 1452.619019,1122.544189 1449.144409,1122.762451 
	C1443.574585,1123.112183 1438.012573,1123.584961 1432.338745,1124.013916 
	C1436.608398,1119.190186 1435.558105,1112.728516 1435.614868,1105.963623 
z"/>
<path fill="#2A2020" opacity="1.000000" stroke="none" 
	d="
M1626.630859,1108.776733 
	C1629.883667,1121.169678 1630.055420,1133.197388 1626.696289,1145.165405 
	C1622.583740,1159.817017 1612.077026,1168.972290 1598.709229,1169.811523 
	C1585.730957,1170.626221 1574.185303,1162.924561 1569.064819,1148.293091 
	C1563.178955,1131.473999 1563.328247,1114.506348 1572.788452,1098.742920 
	C1578.741577,1088.823364 1587.945801,1084.024780 1599.651611,1084.936035 
	C1611.438477,1085.853516 1619.102295,1092.668945 1624.163330,1102.882202 
	C1625.048584,1104.668579 1625.742798,1106.549683 1626.630859,1108.776733 
z"/>
<path fill="#281E1E" opacity="1.000000" stroke="none" 
	d="
M551.193970,1171.253418 
	C550.801025,1171.823853 550.109375,1172.067505 549.417725,1172.311035 
	C549.502563,1171.754883 549.587402,1171.198730 549.982849,1170.459961 
	C550.494019,1170.493774 550.694641,1170.710205 551.193970,1171.253418 
z"/>
<path fill="#281E1E" opacity="1.000000" stroke="none" 
	d="
M678.362915,1171.320801 
	C678.645203,1171.336426 678.704041,1171.554077 678.762878,1171.771606 
	C678.555115,1171.688599 678.347290,1171.605591 678.362915,1171.320801 
z"/>
<path fill="#2A2020" opacity="1.000000" stroke="none" 
	d="
M165.081848,1304.941528 
	C165.070648,1299.800781 165.162766,1295.149902 165.049988,1290.504150 
	C164.985748,1287.857910 165.760513,1286.544678 168.690689,1286.582520 
	C177.826279,1286.700439 186.966019,1286.524048 196.100693,1286.673462 
	C200.546860,1286.746094 205.003616,1291.655518 205.101852,1296.177246 
	C205.159592,1298.834106 205.137619,1301.493408 205.108871,1304.151245 
	C205.048645,1309.719482 200.739853,1314.069702 195.171219,1314.091797 
	C185.394623,1314.130615 175.617767,1314.102661 165.099350,1314.102661 
	C165.099350,1310.943848 165.099350,1308.188721 165.081848,1304.941528 
z"/>
<path fill="#2C2222" opacity="1.000000" stroke="none" 
	d="
M174.094696,1278.909668 
	C163.867828,1278.721802 165.200607,1280.264160 165.067413,1270.451294 
	C164.992844,1264.958130 165.086838,1259.462524 165.136475,1253.968262 
	C165.140686,1253.501099 165.384171,1253.036011 165.695038,1251.941040 
	C175.514969,1251.941040 185.447174,1251.783203 195.364029,1252.101807 
	C196.952026,1252.152954 198.904129,1254.044678 199.944992,1255.586914 
	C203.710709,1261.167114 202.518326,1267.634644 201.066330,1273.304199 
	C199.923859,1277.764893 195.188293,1279.438965 190.057129,1279.002441 
	C184.932358,1278.566406 179.741867,1278.902832 174.094696,1278.909668 
z"/>
<path fill="#2A2020" opacity="1.000000" stroke="none" 
	d="
M1885.028931,1251.821289 
	C1890.521240,1251.821655 1895.518188,1251.794922 1900.514526,1251.828979 
	C1906.890259,1251.872559 1910.289062,1255.241699 1910.354492,1261.570068 
	C1910.390625,1265.067017 1910.386841,1268.565186 1910.351929,1272.062256 
	C1910.295166,1277.732666 1906.770386,1281.350342 1901.176025,1281.378052 
	C1892.054688,1281.423462 1882.933105,1281.390259 1873.184570,1281.390259 
	C1873.184570,1272.041382 1873.101318,1263.263306 1873.309082,1254.491943 
	C1873.330566,1253.589233 1875.006226,1252.104736 1876.054932,1251.967773 
	C1878.839844,1251.603760 1881.701904,1251.829834 1885.028931,1251.821289 
z"/>
<path fill="#281F1F" opacity="1.000000" stroke="none" 
	d="
M562.615784,1263.020264 
	C562.615784,1259.235229 562.615784,1255.947144 562.615784,1252.091675 
	C573.309448,1252.091675 583.420959,1251.933472 593.522156,1252.186890 
	C596.610168,1252.264282 601.947327,1259.057495 601.958191,1262.229126 
	C602.005371,1276.057007 602.004639,1289.885498 601.961121,1303.713501 
	C601.950439,1307.118286 596.394043,1313.748535 593.061829,1313.818115 
	C583.121887,1314.025513 573.174988,1313.892578 562.615784,1313.892578 
	C562.615784,1296.739624 562.615784,1280.128418 562.615784,1263.020264 
z"/>
</svg>